<svg xmlns="http://www.w3.org/2000/svg" viewBox="0 0 607.04 232.6"><g id="fc45ad7d-3f94-485b-80ef-2759326aaa2e" data-name="CTF logo + text"><text transform="translate(280.26 119.75) scale(0.88 1)" font-size="51.06" fill="#f6f7eb" font-family="Stolzl-Bold, Stolzl" font-weight="700">M<tspan x="42.94" y="0" letter-spacing="-0.1em">A</tspan><tspan x="77.26" y="0" letter-spacing="-0.06em">Y</tspan><tspan x="110.19" y="0">O</tspan><tspan x="151.65" y="0" letter-spacing="-0.03em">R</tspan><tspan x="185.41" y="0" letter-spacing="0em">S CUP</tspan></text><text transform="matrix(1, 0.01, -0.01, 1, 281.16, 183.35)" font-size="33.07" fill="#f6f7eb" font-family="FenwickOutline-Regular, Fenwick" letter-spacing="0.01em">C<tspan x="23.28" y="0" letter-spacing="0.08em">YBER SECURITY </tspan><tspan letter-spacing="0.26em"><tspan x="0" y="29.74">COMPETITION</tspan></tspan></text><text transform="matrix(0.82, 0.01, -0.01, 1, 280, 73.11)" font-size="76.76" fill="#fe5f55" font-family="Stolzl-Book, Stolzl"><tspan letter-spacing="0.01em">S</tspan><tspan x="50.12" y="0" letter-spacing="-0.01em">P</tspan><tspan x="101.01" y="0">OKANE</tspan></text><text transform="translate(279.81 152.06) scale(0.89 1)" font-size="23.6" fill="#fe5f55" font-family="Stolzl-Bold, Stolzl" font-weight="700" letter-spacing="0.26em">C<tspan x="24.64" y="0" letter-spacing="0.29em">APTURE THE FL</tspan><tspan x="295.57" y="0" letter-spacing="0.25em">A</tspan><tspan x="319.69" y="0" letter-spacing="0.29em">G</tspan></text><path d="M222.62,201.89l-.14-25a4,4,0,0,1,4-4l32.63-.19a4,4,0,0,0,3.95-4l0-3.41h0l-.08-17.27v1.75l0-6.67a4,4,0,0,0-4-4l-30.29.17a4,4,0,0,0-4,4v.94a4,4,0,0,0,4,4l21.39-.12a4,4,0,0,1,4,4l0,7.8a4,4,0,0,1-3.95,4l-34.38.2h-2.22l.2,36.82a4.46,4.46,0,0,1-.51,1.91,5.29,5.29,0,0,0-.52,2.36,5.41,5.41,0,0,0,1.63,3.89,5.57,5.57,0,0,0,.9.72,5.52,5.52,0,0,0,6.89-.76,5.48,5.48,0,0,0,.52-7.14Zm-2.93,4.75a2.11,2.11,0,0,1-3.61-1.48,2,2,0,0,1,.61-1.49,2.11,2.11,0,0,1,1.48-.63,2.13,2.13,0,0,1,1.5.61,2.14,2.14,0,0,1,0,3Z" fill="#4d7ea8"/><path d="M264.46,120l0-4.45h0l-.05-8.76a5.26,5.26,0,0,0-5.28-5.22l-3.65,0v.07l-60.87.34a5.26,5.26,0,0,0-5.22,5.28l0,3.65h0l.08,13.39a5.54,5.54,0,0,0-1.67,1.15,5.5,5.5,0,0,0,0,7.79,4.68,4.68,0,0,0,.89.72,5.51,5.51,0,0,0,6.9-8.51,5.32,5.32,0,0,1-1.74-3.67l0-5.65a5.25,5.25,0,0,1,5.22-5.27l56.42-.32,0,5-47,.26a5.54,5.54,0,0,0-1.15-1.67,5.51,5.51,0,1,0-7.75,7.84,5.57,5.57,0,0,0,.9.72,5.52,5.52,0,0,0,6.85-.72,5.34,5.34,0,0,1,3.67-1.74Zm-74.21,7.86a2.11,2.11,0,0,1,3,3,2.12,2.12,0,0,1-3,0,2.11,2.11,0,0,1,0-3Zm13.27-7.64a2.09,2.09,0,0,1-1.5-.61,2.06,2.06,0,0,1-.62-1.49h0a2.1,2.1,0,0,1,3.24-1.78,2.33,2.33,0,0,1,.35.27,2.11,2.11,0,0,1-1.47,3.61Z" fill="#4d7ea8"/><path d="M265,128.25a5.52,5.52,0,0,0-5.54-5.48,5.46,5.46,0,0,0-3.89,1.63,5.24,5.24,0,0,0-1.13,1.68l-46.4.26h0l-4.49,0a4.42,4.42,0,0,0-4.39,4.44l.4,70.77-5.14,0-.29-51.84-2.23,0,4.65,0,0-4.88a4.42,4.42,0,0,0-4.44-4.39h-.47a4.41,4.41,0,0,0-4.39,4.44l0,4.88h2.42l.34,60.74,4.45,0h0l5.14,0h.21l5.33,0h0l3.36,0-.42-75.22a4.41,4.41,0,0,1,4.39-4.44l42-.24A5.51,5.51,0,0,0,265,128.25Zm-5.5,2.14a2.11,2.11,0,0,1-1.51-3.6,2.06,2.06,0,0,1,1.49-.62,2.11,2.11,0,1,1,0,4.22Z" fill="#4d7ea8"/><path d="M251.23,156a5.51,5.51,0,0,0-10.56-2.16l-17.61.1a2.94,2.94,0,0,1-3-2.91l0-6.45a5.51,5.51,0,1,0-7.76-5,5.52,5.52,0,0,0,1.63,3.89,6.18,6.18,0,0,0,.9.72,4.84,4.84,0,0,0,.78.41l.07,9.38h0l0,4.45,25-.14a5.38,5.38,0,0,0,1.15,1.66,5.08,5.08,0,0,0,.9.72,5.37,5.37,0,0,0,3,.87,5.5,5.5,0,0,0,5.48-5.54Zm-34.91-15a2.11,2.11,0,0,1-.63-1.49h0a2.12,2.12,0,0,1,2.1-2.12,2.11,2.11,0,0,1,1.15.33,2.3,2.3,0,0,1,.34.28,2.11,2.11,0,1,1-3,3Zm30.9,16.47a2.11,2.11,0,0,1-3,0,2.11,2.11,0,0,1-.63-1.48,2.12,2.12,0,0,1,2.1-2.13,2.1,2.1,0,0,1,1.15.34,2.33,2.33,0,0,1,.35.27,2.1,2.1,0,0,1,.62,1.49A2.05,2.05,0,0,1,247.22,157.48Z" fill="#4d7ea8"/><path d="M95.69,44.62a5.52,5.52,0,0,0-10.13-3.3,5.44,5.44,0,0,0-.88,2.79,5.52,5.52,0,0,0,1.54,4l-.43,1.38a30.44,30.44,0,0,0-9.51-.44A2.18,2.18,0,0,1,74,47.73L70.22,37.62a.61.61,0,0,0,0-.13h0a4.51,4.51,0,0,0-5.9-2.85C39.67,44,30.37,66.86,32.24,86.39c1,10.18,5.9,20.59,13.53,28.55a44.11,44.11,0,0,0,26.16,13.59l.21,0L71.89,134c-39-7.44-45.55-41-45.44-52.81a54.9,54.9,0,0,1,6.7-26.5C43.29,36.51,58.68,29.84,68.7,28.52c1.19-.15,3.94-1.59,3.44-4.15a4.57,4.57,0,0,0-.9-2.11,4.61,4.61,0,0,0-3.73-1.32c-20.29,2-43.59,21-47.65,48.56a65.87,65.87,0,0,0,0,19.73,64.17,64.17,0,0,0,18.27,35.48A56.36,56.36,0,0,0,55,136.11,53.75,53.75,0,0,0,71,140.32a4.4,4.4,0,0,0,4.76-3.49,2,2,0,0,0,.1-.5l1-12.53a4,4,0,0,0-3.89-4c-7.79,0-15-4.81-20.91-10.94C45.92,102.4,41.75,93.69,41,85.56a42.5,42.5,0,0,1,5.77-25.87,39.89,39.89,0,0,1,18.59-16A2.16,2.16,0,0,1,68.2,45c.92,2.47,1.89,5.09,2.52,6.8a2.1,2.1,0,0,0,2.51,1.32,24.06,24.06,0,0,1,7.35-.66,28.77,28.77,0,0,1,7.5,1.7.86.86,0,0,0,1.11-.54l1.17-3.74h.25a5.51,5.51,0,0,0,5.08-5.2Zm-3.9,1.07a2.11,2.11,0,0,1-3.5-.43,1.72,1.72,0,0,1-.21-.87h0a2.19,2.19,0,0,1,.37-1.26A2.1,2.1,0,0,1,90,42.22h.15a2.11,2.11,0,0,1,1.62,3.48Z" fill="#4d7ea8"/><path d="M114.1,122.91,103,109.44l-.23-.27-5.67-6.81-.38.32c-6.85,4.61-15.4,7.74-22.89,7a25.28,25.28,0,0,1-17.51-9.59,29.61,29.61,0,0,1-5.78-22,25.77,25.77,0,0,1,9.78-16.9l.71-.54a5.39,5.39,0,0,0,2.95.78,5.51,5.51,0,1,0-5.57-6.32,5.63,5.63,0,0,0,.06,2A30.13,30.13,0,0,0,46.19,77.41a34,34,0,0,0,6.67,25.36A29.57,29.57,0,0,0,73.38,114a31.19,31.19,0,0,0,3.48.17A38,38,0,0,0,94,109.73l1-.57L98,112.9a2.81,2.81,0,0,1-1.11,4.31l-7.93,3.41-.87-1.87-5.94,2.59a2.81,2.81,0,0,0-1.46,3.7l1.48,3.37a2.81,2.81,0,0,0,3.7,1.45l5.94-2.59-1-2.23a43.8,43.8,0,0,0,4.91-1.54,42.8,42.8,0,0,0,7.84-4l2.82,3.45,2.72,3.3a16.45,16.45,0,0,1-8.25,5.47,16.19,16.19,0,0,1-7.33.31h0a5.42,5.42,0,0,0-2.57-.62A5.51,5.51,0,1,0,95,140.7c8.86-1.23,16.56-5.32,22.19-9.22a2.82,2.82,0,0,0,.57-4.12ZM62.37,54.36a2.06,2.06,0,0,1,1.5-.63,2.11,2.11,0,0,1,0,4.22,1.71,1.71,0,0,1-1.5-.61,2.12,2.12,0,0,1-.62-1.49A2.09,2.09,0,0,1,62.37,54.36ZM90.84,139a1.73,1.73,0,0,1-1.5-.61,2.1,2.1,0,0,1-.62-1.49,2.05,2.05,0,0,1,.61-1.5,2,2,0,0,1,1.49-.62,2.11,2.11,0,0,1,0,4.22Z" fill="#4d7ea8"/><path d="M112.68,36.39c1,.7,1.95,1.45,2.91,2.19L118,35.67a4,4,0,0,0-.81-5.7c-9.41-7-21.77-11.27-36.47-11.26a3.94,3.94,0,0,0-4,3.91c0,5.8.07,13.05.07,13.05l.13,0v0c12.3.27,20.07.76,28.08,6.93a5.33,5.33,0,0,0-.22.71,5.61,5.61,0,0,0-.26.79,5.38,5.38,0,0,0,0,1.88l0-.06c0,.06,0,.11,0,.16a5.48,5.48,0,0,0,.76,1.81l-1.38,1.7a5.45,5.45,0,0,0-7.11,1.76h0a5.51,5.51,0,1,0,10,1.94,5.61,5.61,0,0,0-.36-.88l1.79-2.22a5.05,5.05,0,0,0,2.81.18,5.51,5.51,0,0,0,1.94-10,5.41,5.41,0,0,0-4.51-.65c-8.7-7-17.46-8-27.23-8.35l0-4.05a55.51,55.51,0,0,1,20.54,3.5A54.7,54.7,0,0,1,112.68,36.39Zm-9.53,19.16a2.11,2.11,0,1,1-.59-2.92A2.11,2.11,0,0,1,103.15,55.55Zm7.95-12.34a2.11,2.11,0,0,1-2.33,3.52,2.06,2.06,0,0,1-.9-1.34,2,2,0,0,1,.31-1.58h0a2.1,2.1,0,0,1,1.76-1A2.15,2.15,0,0,1,111.1,43.21Z" fill="#4d7ea8"/><path d="M197,88.55a2.38,2.38,0,0,0,2.36-2.39l-.13-24.72h-.09l0-5.92-31.32.18-5.14,0L162.71,67a5.46,5.46,0,0,0,2.6,10.28h0a5.43,5.43,0,0,0,4.57-2.67l8.63-.05v2.24l5.57,0a3.72,3.72,0,0,0,3.7-3.75V71.19a3.72,3.72,0,0,0-3.75-3.7l-5.56,0v1.91l-8.23,0a5.52,5.52,0,0,0-2.42-2.5l0-2.37,19.22-.11a3.29,3.29,0,0,1,3.31,3.27l0,8.83a3.09,3.09,0,0,1-3.08,3.11l-22.17.13,0,6.52v2.38l.1,17.56c0,2.06,0,3.71,0,3.71h3.44c2.06,0,3.72-2.75,3.71-4.81l-.09-14.12a2.38,2.38,0,0,1,2.36-2.39l15.74-.09ZM165.32,73.89a2.5,2.5,0,0,1-1.49-.61,2.11,2.11,0,1,1,1.49.61Z" fill="#4d7ea8"/><path d="M172.24,155.06a5.6,5.6,0,0,0-1.67-1.11l-.19-33.58,0-5.14-9.52,0a5.47,5.47,0,0,0-.89-1.32,5.59,5.59,0,0,0-1.33-.88l-.27-48.66V63l0-7v-.47l-41.57.24a4.61,4.61,0,0,0-4.6,4.65v4.27l.08,16,0,6a2.87,2.87,0,0,0,2.89,2.85l12.68-.07a3,3,0,0,1,1.44.41,4.44,4.44,0,0,0,2.38.63A5.61,5.61,0,0,0,137.17,85a5.5,5.5,0,0,0-5.55-5.48,5.21,5.21,0,0,0-3.06,1.08l-9,0a2.68,2.68,0,0,1-2.92-2.86c0-1.93,0-4.88,0-6.11a8.48,8.48,0,0,1,.42-3.22,6.52,6.52,0,0,1,1.77-2.5c2.32-2.21,4.9-2.18,7.44-2.29h22.35A4.38,4.38,0,0,1,152,64.91,4,4,0,0,1,153.21,68c0,1,.25,43.36.25,43.36a3.07,3.07,0,0,1-1,2.38,5.41,5.41,0,0,0-1.95,4.14,5.52,5.52,0,0,0,5.52,5.48h0a5.47,5.47,0,0,0,4.77-3l5.06,0,.19,33.58a5.49,5.49,0,0,0-1.66,1.13,5.43,5.43,0,0,0-1.6,3.9,5.5,5.5,0,0,0,5.5,5.48,5.27,5.27,0,0,0,3.93-1.63,5.52,5.52,0,0,0,0-7.8ZM131.66,82.91A2.14,2.14,0,1,1,129.52,85,2.13,2.13,0,0,1,131.66,82.91ZM156.08,120h0a2.11,2.11,0,0,1,0-4.22,2.19,2.19,0,0,1,1.49.61,2.11,2.11,0,0,1-1.47,3.61Zm13.79,40.47a2.09,2.09,0,0,1-1.49.63,1.67,1.67,0,0,1-1.49-.61,2.09,2.09,0,0,1,0-3,1.55,1.55,0,0,1,1.5-.63,2.12,2.12,0,0,1,2.1,2.1A2.05,2.05,0,0,1,169.87,160.46Z" fill="#4d7ea8"/><path d="M158.5,155.29l-.15-27.51-4.45,0,.14,25.51a2,2,0,0,1-2,2l-3.11,0a2,2,0,0,1-2-2l-.46-83.51-4.72,0L130,69.94a5.43,5.43,0,0,0-1.1-1.61,5.3,5.3,0,0,0-3.9-1.59,5.51,5.51,0,0,0,0,11h0a5.3,5.3,0,0,0,4-1.87,2.13,2.13,0,0,1,1.58-.8l6.79,0a2,2,0,0,1,2,2l.46,82.72,0,4.55,14.19-.08v0l4.45,0v0ZM125,74.36a2.14,2.14,0,1,1,2.14-2.13A2.13,2.13,0,0,1,125,74.36Z" fill="#4d7ea8"/></g></svg>