<svg xmlns="http://www.w3.org/2000/svg" viewBox="0 0 124.77 47.84"><g id="ef401e82-80c5-48e4-b3c1-386e22704642" data-name="CTF logo + text"><path d="M45.16,41.75l0-5.12a.82.82,0,0,1,.81-.83l6.7,0a.82.82,0,0,0,.81-.82v-.7h0V29.69a.82.82,0,0,0-.82-.81l-6.22,0a.82.82,0,0,0-.81.82v.2a.82.82,0,0,0,.82.81l4.39,0a.81.81,0,0,1,.82.81v1.6a.82.82,0,0,1-.81.82l-7.06,0h-.45l0,7.56a.88.88,0,0,1-.11.39,1.17,1.17,0,0,0,.23,1.29,1.33,1.33,0,0,0,.19.14,1.09,1.09,0,0,0,.61.18,1.12,1.12,0,0,0,.8-.33,1.16,1.16,0,0,0,.33-.81A1.11,1.11,0,0,0,45.16,41.75Zm-.6,1a.45.45,0,0,1-.31.12.42.42,0,0,1-.43-.43.39.39,0,0,1,.12-.3.4.4,0,0,1,.31-.13.42.42,0,0,1,.3.12.44.44,0,0,1,.13.31A.47.47,0,0,1,44.56,42.73Z" fill="#4d7ea8"/><path d="M53.74,24.94V24h0v-1.8a1.09,1.09,0,0,0-1.09-1.07H51.9l-12.49.07a1.08,1.08,0,0,0-1.07,1.08v.75h0l0,2.75a1.16,1.16,0,0,0-.34.24,1.14,1.14,0,0,0-.33.8,1.12,1.12,0,0,0,.34.8,1.24,1.24,0,0,0,.18.14,1.12,1.12,0,0,0,.62.18,1.15,1.15,0,0,0,.8-.33,1.15,1.15,0,0,0,0-1.59,1.09,1.09,0,0,1-.36-.76V24.15a1.09,1.09,0,0,1,1.07-1.08L51.92,23v1l-9.65.05a1.31,1.31,0,0,0-.24-.34,1.09,1.09,0,0,0-.8-.32,1.13,1.13,0,0,0-1.13,1.13,1.15,1.15,0,0,0,.34.8l.18.15a1.15,1.15,0,0,0,.62.18,1.12,1.12,0,0,0,.79-.33,1.11,1.11,0,0,1,.75-.36ZM38.52,26.56a.42.42,0,0,1,.3-.13.44.44,0,0,1,.44.43.46.46,0,0,1-.13.31.42.42,0,0,1-.3.12.39.39,0,0,1-.31-.12.44.44,0,0,1-.13-.31A.39.39,0,0,1,38.52,26.56ZM41.24,25a.4.4,0,0,1-.31-.13.43.43,0,0,1-.13-.3h0a.44.44,0,0,1,.43-.44.48.48,0,0,1,.24.07l.07.06a.43.43,0,0,1-.3.74Z" fill="#4d7ea8"/><path d="M53.85,26.64a1.14,1.14,0,0,0-1.14-1.13,1.12,1.12,0,0,0-.8.34,1.27,1.27,0,0,0-.23.34l-9.52.06h-.92a.9.9,0,0,0-.9.91l.08,14.53H39.36L39.3,31.05h.5v-1a.9.9,0,0,0-.91-.9h-.09a.9.9,0,0,0-.9.91v1h.5l.07,12.47h3.79l-.08-15.44a.9.9,0,0,1,.9-.91l8.62,0a1,1,0,0,0,.42.48,1.07,1.07,0,0,0,.61.18A1.13,1.13,0,0,0,53.85,26.64Zm-1.13.44a.45.45,0,0,1-.44-.43.44.44,0,0,1,.13-.31.43.43,0,0,1,.74.3A.44.44,0,0,1,52.72,27.08Z" fill="#4d7ea8"/><path d="M51,32.32a1.13,1.13,0,0,0-1.14-1.12,1.08,1.08,0,0,0-.79.34,1.16,1.16,0,0,0-.24.34l-3.61,0a.6.6,0,0,1-.61-.6V30a1.16,1.16,0,0,0,.34-.24,1.09,1.09,0,0,0,.33-.8,1.13,1.13,0,0,0-1.14-1.12A1.11,1.11,0,0,0,43,29a1.12,1.12,0,0,0,.33.8.9.9,0,0,0,.19.15l.16.09v1.92h0v.91l5.13,0a1,1,0,0,0,.23.35,1.33,1.33,0,0,0,.19.14,1.1,1.1,0,0,0,.62.18A1.13,1.13,0,0,0,51,32.32Zm-7.17-3.06a.45.45,0,0,1-.12-.31h0a.45.45,0,0,1,.12-.31.43.43,0,0,1,.31-.12.38.38,0,0,1,.23.06l.07.06a.4.4,0,0,1,.13.31.42.42,0,0,1-.12.3.44.44,0,0,1-.31.13A.47.47,0,0,1,43.86,29.26Zm6.35,3.38a.43.43,0,0,1-.31.12.42.42,0,0,1-.3-.12.4.4,0,0,1-.13-.31.42.42,0,0,1,.12-.3.4.4,0,0,1,.31-.13.39.39,0,0,1,.23.07.18.18,0,0,1,.07.05.4.4,0,0,1,.13.31A.47.47,0,0,1,50.21,32.64Z" fill="#4d7ea8"/><path d="M19.11,9.47a1.14,1.14,0,0,0-1.22-1.19A1.12,1.12,0,0,0,17,8.8a1,1,0,0,0-.18.57,1.15,1.15,0,0,0,.31.83l-.08.28a6.33,6.33,0,0,0-2-.09.45.45,0,0,1-.47-.28L13.88,8V8h0a.93.93,0,0,0-1.21-.59,10.07,10.07,0,0,0-3.8,16.49,9,9,0,0,0,5.37,2.78h0l0,1.12A11,11,0,0,1,4.9,17a11.13,11.13,0,0,1,1.37-5.44,10.12,10.12,0,0,1,7.3-5.38c.24,0,.81-.33.7-.85a1,1,0,0,0-.18-.44,1,1,0,0,0-.77-.27c-4.16.41-8.94,4.32-9.78,10a13.74,13.74,0,0,0,0,4,13.17,13.17,0,0,0,3.75,7.28,11.44,11.44,0,0,0,3.46,2.34,10.66,10.66,0,0,0,3.29.86.9.9,0,0,0,1-.71.36.36,0,0,0,0-.1l.21-2.58a.8.8,0,0,0-.8-.81,6.27,6.27,0,0,1-4.29-2.25,8.38,8.38,0,0,1-2.28-4.79,8.7,8.7,0,0,1,1.18-5.3,8.27,8.27,0,0,1,3.82-3.29.43.43,0,0,1,.58.26l.52,1.4a.44.44,0,0,0,.52.27A4.78,4.78,0,0,1,16,11.07a5.79,5.79,0,0,1,1.53.35.17.17,0,0,0,.23-.11l.24-.77h0a1.12,1.12,0,0,0,.86-.51A1.1,1.1,0,0,0,19.11,9.47Zm-.8.22a.44.44,0,0,1-.3.15.42.42,0,0,1-.42-.24.33.33,0,0,1,0-.17h0a.38.38,0,0,1,.07-.26A.43.43,0,0,1,17.94,9h0a.44.44,0,0,1,.44.4A.43.43,0,0,1,18.31,9.69Z" fill="#4d7ea8"/><path d="M22.89,25.54l-2.28-2.76-.05-.06-1.16-1.4-.08.07a7.51,7.51,0,0,1-4.7,1.43,5.18,5.18,0,0,1-3.59-2,6,6,0,0,1-1.19-4.52,5.28,5.28,0,0,1,2-3.47l.14-.11a1.07,1.07,0,0,0,.61.16,1.13,1.13,0,1,0-.17-2.25,1.11,1.11,0,0,0-1,.95,1.13,1.13,0,0,0,0,.41A6.12,6.12,0,0,0,9,16.2a7,7,0,0,0,1.37,5.21,6,6,0,0,0,4.21,2.31c.23,0,.47,0,.71,0a8,8,0,0,0,3.53-.91l.21-.12.6.77a.57.57,0,0,1-.23.88l-1.63.7-.18-.38-1.22.53A.59.59,0,0,0,16,26l.31.69a.57.57,0,0,0,.76.3l1.22-.53-.2-.46a8.17,8.17,0,0,0,1-.32,8.27,8.27,0,0,0,1.61-.82l.58.71.56.68a3.39,3.39,0,0,1-1.69,1.12,3.49,3.49,0,0,1-1.51.07h0a1,1,0,0,0-.52-.13,1.13,1.13,0,1,0,.83,1.9,10.68,10.68,0,0,0,4.55-1.89.58.58,0,0,0,.12-.85ZM12.27,11.47a.43.43,0,1,1,.31.74.34.34,0,0,1-.31-.13.43.43,0,0,1-.13-.3A.44.44,0,0,1,12.27,11.47Zm5.84,17.38a.35.35,0,0,1-.31-.13.42.42,0,0,1-.12-.3.43.43,0,0,1,.12-.31.44.44,0,0,1,.31-.13.44.44,0,0,1,0,.87Z" fill="#4d7ea8"/><path d="M22.59,7.78c.22.15.4.3.6.45l.49-.59a.81.81,0,0,0-.17-1.17A12.18,12.18,0,0,0,16,4.16a.81.81,0,0,0-.82.8c0,1.19,0,2.68,0,2.68h0c2.53.06,4.12.16,5.77,1.43,0,0,0,.09-.05.14a1.42,1.42,0,0,0,0,.16,1.28,1.28,0,0,0,0,.39h0v0a1.12,1.12,0,0,0,.16.37l-.29.35a1.14,1.14,0,0,0-1.46.36h0a1.14,1.14,0,0,0,.32,1.57,1.11,1.11,0,0,0,.63.19,1.13,1.13,0,0,0,.94-.51,1.11,1.11,0,0,0,.17-.85c0-.06-.06-.12-.08-.18l.37-.45a1.35,1.35,0,0,0,.35.06l.23,0a1.13,1.13,0,0,0,.39-2.05,1.08,1.08,0,0,0-.92-.13,8.57,8.57,0,0,0-5.59-1.72V5.92a11.71,11.71,0,0,1,4.22.72A11.22,11.22,0,0,1,22.59,7.78Zm-1.95,3.94a.43.43,0,0,1-.6.12.43.43,0,1,1,.48-.72A.43.43,0,0,1,20.64,11.72Zm1.63-2.54a.43.43,0,0,1,.18.28.4.4,0,0,1-.06.32.42.42,0,0,1-.78-.15.4.4,0,0,1,.06-.32h0a.42.42,0,0,1,.36-.2A.51.51,0,0,1,22.27,9.18Z" fill="#4d7ea8"/><path d="M39.9,18.49a.49.49,0,0,0,.49-.49l0-5.08h0V11.71l-6.42,0H32.85v2.32a1.12,1.12,0,0,0-.6,1,1.17,1.17,0,0,0,.34.8,1.14,1.14,0,0,0,.8.33h0a1.12,1.12,0,0,0,.94-.55h1.77v.46h1.15A.76.76,0,0,0,38,15.3v-.37a.75.75,0,0,0-.77-.76H36.1v.39H34.42a1.23,1.23,0,0,0-.5-.51v-.49l3.94,0a.68.68,0,0,1,.68.67V16a.64.64,0,0,1-.63.64l-4.55,0v1.83l0,3.6v.76h.7c.43,0,.77-.56.76-1V19a.49.49,0,0,1,.48-.49H39.9Zm-6.5-3a.49.49,0,0,1-.31-.13.43.43,0,0,1-.13-.3.44.44,0,1,1,.87,0A.44.44,0,0,1,33.4,15.48Z" fill="#4d7ea8"/><path d="M34.82,32.14a1.18,1.18,0,0,0-.35-.23l0-6.89V24l-2,0a1.09,1.09,0,0,0-.19-.27,1.31,1.31,0,0,0-.27-.19l-.05-10V11.71l-8.54,0a1,1,0,0,0-.94,1v.88l0,3.29v1.24a.58.58,0,0,0,.59.58h2.6a.61.61,0,0,1,.3.08.94.94,0,0,0,.49.13,1.15,1.15,0,0,0,1.13-1.14,1.12,1.12,0,0,0-1.14-1.12,1.07,1.07,0,0,0-.63.22H24a.56.56,0,0,1-.6-.58c0-.4,0-1,0-1.26a1.85,1.85,0,0,1,.09-.66,1.34,1.34,0,0,1,.36-.51,2.05,2.05,0,0,1,1.53-.47H30a.9.9,0,0,1,.69.25.81.81,0,0,1,.25.64c0,.2.05,8.9.05,8.9a.63.63,0,0,1-.19.49,1.07,1.07,0,0,0-.4.85,1.13,1.13,0,0,0,1.13,1.12h0a1.1,1.1,0,0,0,1-.61h1l0,6.89a1.08,1.08,0,0,0-.34.23,1.12,1.12,0,0,0,0,1.6,1.12,1.12,0,0,0,1.6,0,1.14,1.14,0,0,0,.33-.8A1.19,1.19,0,0,0,34.82,32.14ZM26.49,17.33a.44.44,0,1,1-.44.44A.44.44,0,0,1,26.49,17.33Zm5,7.61h0a.43.43,0,0,1-.43-.43.42.42,0,0,1,.43-.43.4.4,0,0,1,.3.12.44.44,0,0,1,.13.31A.43.43,0,0,1,31.5,24.94Zm2.83,8.31a.43.43,0,0,1-.3.13.35.35,0,0,1-.31-.13.43.43,0,0,1-.13-.3.44.44,0,0,1,.13-.31.32.32,0,0,1,.31-.13.44.44,0,0,1,.43.43A.44.44,0,0,1,34.33,33.25Z" fill="#4d7ea8"/><path d="M32,32.19l0-5.65h-.92l0,5.23a.42.42,0,0,1-.41.42H30a.42.42,0,0,1-.42-.41l-.09-17.14H26.15a1.23,1.23,0,0,0-.23-.33,1.1,1.1,0,0,0-.8-.33,1.13,1.13,0,0,0,0,2.26h0a1.06,1.06,0,0,0,.81-.38.44.44,0,0,1,.33-.16h1.39a.4.4,0,0,1,.41.4l.1,17V34l2.92,0H32ZM25.13,15.58a.44.44,0,1,1,.44-.44A.44.44,0,0,1,25.13,15.58Z" fill="#4d7ea8"/><text transform="translate(55.78 25.23) scale(0.88 1)" font-size="10.45" fill="#f6f7eb" font-family="Stolzl-Bold, Stolzl" font-weight="700">M<tspan x="8.79" y="0" letter-spacing="-0.1em">A</tspan><tspan x="15.81" y="0" letter-spacing="-0.06em">Y</tspan><tspan x="22.54" y="0">OR’S CUP</tspan></text><text/><text transform="matrix(1.04, 0.01, -0.01, 1, 55.91, 35.68)" font-size="3.17" fill="#f6f7eb" font-family="Stolzl-Bold, Stolzl" font-weight="700" letter-spacing="0.04em">C<tspan x="2.61" y="0" letter-spacing="0.08em">YB</tspan><tspan x="7.44" y="0" letter-spacing="0.09em">E</tspan><tspan x="9.59" y="0" letter-spacing="0.08em">R SECU</tspan><tspan x="22.95" y="0" letter-spacing="0.06em">R</tspan><tspan x="25.33" y="0" letter-spacing="0.08em">ITY </tspan><tspan x="32.41" y="0" letter-spacing="0.26em">COMPETITION</tspan></text><text transform="matrix(0.82, 0.01, -0.01, 1, 55.71, 15.96)" font-size="16.64" fill="#fe5f55" font-family="Stolzl-Book, Stolzl"><tspan letter-spacing="0.01em">S</tspan><tspan x="10.86" y="0" letter-spacing="-0.01em">P</tspan><tspan x="21.9" y="0">OKANE</tspan></text><text transform="translate(56.05 31.97) scale(0.89 1)" font-size="5.43" fill="#fe5f55" font-family="FenwickOutline-Regular, Fenwick" letter-spacing="0.29em">CAPTURE THE FLAG</text></g></svg>