<?xml version="1.0" encoding="utf-8"?>
<!-- Generator: Adobe Illustrator 25.3.1, SVG Export Plug-In . SVG Version: 6.00 Build 0)  -->
<svg version="1.1" xmlns="http://www.w3.org/2000/svg" xmlns:xlink="http://www.w3.org/1999/xlink" x="0px" y="0px"
	 viewBox="0 0 119 50" style="enable-background:new 0 0 119 50;" xml:space="preserve">
<style type="text/css">
	.st0{fill:none;}
	.st1{display:none;fill:#ACBEA3;}
	.st2{font-family:'Stolzl-Bold';}
	.st3{font-size:10.4204px;}
	.st4{fill:#ACBEA3;}
	.st5{fill:#363537;}
	.st6{font-family:'Stolzl-Light';}
	.st7{font-size:4.9112px;}
	.st8{letter-spacing:1.1;}
	.st9{font-family:'FenwickOutline-Regular';}
	.st10{font-size:6.896px;}
	.st11{letter-spacing:1;}
	.st12{font-family:'Stolzl-Thin';}
	.st13{font-size:15.7539px;}
	.st14{fill:none;stroke:#363537;stroke-width:0.6981;}
	.st15{fill:#FF0000;}
	.st16{fill:#ED2929;}
	.st17{fill:#008CFF;}
	.st18{fill:#0000FF;}
	.st19{display:none;}
	.st20{display:inline;}
	.st21{fill:#01BDD2;}
	.st22{display:inline;fill:#FF0000;}
	.st23{fill:#753FA7;}
	.st24{fill:#008BBA;}
</style>
<g id="Layer_1">
	<polygon class="st0" points="116.7,25.7 52.4,25.8 52.4,16.9 116.7,16.8 	"/>
	<text transform="matrix(0.9033 -1.092964e-03 2.739959e-03 1 52.4397 24.983)" class="st1 st2 st3">MAYORS </text>
	<g>
		<path class="st4" d="M59.7,17.7l0,7.3l-1.6,0l0-4.8l-1.6,2.8h-0.2l-1.7-2.8l0,4.8l-1.6,0l0-7.3l1.8,0l1.5,2.5l1.5-2.5L59.7,17.7z"
			/>
		<path class="st4" d="M65.2,23.5l-2.5,0L62.3,25l-1.7,0l2.4-7.3l2,0l2.4,7.3l-1.7,0L65.2,23.5z M64.7,21.8L64,19.5l-0.7,2.3
			L64.7,21.8z"/>
		<path class="st4" d="M70.8,22.6l0,2.3l-1.6,0l0-2.3l-2.3-5l1.8,0l1.3,3l1.3-3l1.8,0L70.8,22.6z"/>
		<path class="st4" d="M80,21.3c0,2.1-1.5,3.8-3.4,3.8c-1.9,0-3.5-1.6-3.5-3.8c0-2.1,1.5-3.8,3.4-3.8C78.5,17.5,80,19.2,80,21.3z
			 M74.7,21.3c0,1.2,0.8,2.1,1.8,2.1c1.1,0,1.8-0.9,1.8-2.1c0-1.2-0.8-2.1-1.8-2.1C75.5,19.2,74.7,20.1,74.7,21.3z"/>
		<path class="st4" d="M83.1,22.4l-0.5,0l0,2.5l-1.6,0l0-7.3l2.9,0c1.4,0,2.3,0.9,2.3,2.4c0,1.2-0.5,1.9-1.3,2.2l1.7,2.7l-2,0
			L83.1,22.4z M83.8,19.3l-1.2,0l0,1.5l1.2,0c0.6,0,0.8-0.3,0.8-0.8C84.6,19.6,84.3,19.3,83.8,19.3z"/>
		<path class="st4" d="M92.4,22.7c0,1.8-1.5,2.3-2.5,2.3c-2,0-2.8-1.3-2.9-2.5l1.6,0c0.2,0.6,0.4,0.9,1.3,0.9c0.6,0,0.9-0.2,0.9-0.6
			c0-0.4-0.4-0.5-1.5-0.7c-1.1-0.2-2.2-0.7-2.2-2.2c0-1.6,1.3-2.4,2.5-2.4c1.9,0,2.6,1.2,2.7,2.4l-1.6,0c-0.1-0.4-0.3-0.8-1.1-0.8
			c-0.7,0-0.9,0.3-0.9,0.6c0,0.3,0.3,0.4,1,0.5C91.5,20.8,92.4,21.2,92.4,22.7z"/>
		<path class="st4" d="M96,21.3c0-2.1,1.4-3.8,3.4-3.8c1.6,0,2.9,1.1,3.2,2.7l-1.7,0c-0.3-0.6-0.8-1-1.5-1c-1.1,0-1.8,0.9-1.8,2.1
			c0,1.2,0.7,2.1,1.8,2.1c0.7,0,1.2-0.4,1.5-1l1.7,0c-0.4,1.6-1.6,2.7-3.2,2.7C97.4,25.1,96,23.4,96,21.3z"/>
		<path class="st4" d="M109.1,17.6l0,4.3c0,2.1-1.2,3.1-2.8,3.1c-1.6,0-2.8-1-2.8-3.1l0-4.3l1.6,0l0,4.2c0,1.1,0.5,1.5,1.2,1.5
			c0.7,0,1.1-0.4,1.1-1.5l0-4.2L109.1,17.6z"/>
		<path class="st4" d="M115.6,20.1c0,1.6-1,2.5-2.4,2.5l-1.2,0l0,2.3l-1.6,0l0-7.3l2.8,0C114.6,17.6,115.6,18.5,115.6,20.1z
			 M114,20.1c0-0.6-0.3-0.8-0.8-0.8l-1.2,0l0,1.7l1.2,0C113.7,21,114,20.7,114,20.1z"/>
	</g>
	<polygon class="st0" points="121,44.2 52.4,44.2 52.4,26.4 121,26.4 	"/>
	<text transform="matrix(0.9033 -1.092964e-03 2.739959e-03 1 52.4279 30.2984)" class="st5 st6 st7 st8">CAPTURE THE FLAG</text>
	
		<rect x="74.2" y="10.5" transform="matrix(6.388902e-03 -1 1 6.388902e-03 41.3898 137.7979)" class="st0" width="31.7" height="75.1"/>
	<text transform="matrix(1 6.389998e-03 -6.389998e-03 1 52.5759 36.599)"><tspan x="0" y="0" class="st4 st9 st10">CYBER SECURITY </tspan><tspan x="0" y="6.9" class="st4 st9 st10 st11">COMPETITION</tspan></text>
	<text transform="matrix(0.8222 6.660035e-03 -5.476028e-03 1 52.4027 15.1771)" class="st5 st12 st13">SPOKANE</text>
	<g>
		
			<rect x="33.6" y="15.9" transform="matrix(1 -5.610058e-03 5.610058e-03 1 -9.377979e-02 0.1939)" class="st5" width="1.9" height="1.9"/>
		<circle class="st14" cx="30.8" cy="16.7" r="0.8"/>
		<circle class="st14" cx="28.9" cy="26.2" r="0.8"/>
		<circle class="st14" cx="31.5" cy="34.6" r="0.8"/>
		
			<rect x="31.4" y="16.3" transform="matrix(1 -5.610058e-03 5.610058e-03 1 -9.366429e-02 0.185)" class="st5" width="3.1" height="1.1"/>
		<circle class="st14" cx="22.4" cy="16.8" r="0.8"/>
		<circle class="st14" cx="23.9" cy="19.1" r="0.8"/>
		
			<rect x="22.9" y="16.3" transform="matrix(1 -5.610058e-03 5.610058e-03 1 -9.406478e-02 0.1374)" class="st5" width="3.1" height="1.1"/>
		
			<rect x="22.8" y="19" transform="matrix(-5.610058e-03 -1 1 -5.610058e-03 9.5359 48.5598)" class="st5" width="12.2" height="1.1"/>
		
			<rect x="29.5" y="25.6" transform="matrix(1 -5.610058e-03 5.610058e-03 1 -0.1462 0.1725)" class="st5" width="2.4" height="1.1"/>
		
			<rect x="29.5" y="14.2" transform="matrix(-5.610058e-03 -1 1 -5.610058e-03 16.2467 45.6792)" class="st5" width="2.6" height="1.1"/>
		
			<rect x="31.1" y="13.4" transform="matrix(1 -5.610058e-03 5.610058e-03 1 -7.987927e-02 0.1933)" class="st5" width="6.7" height="1.8"/>
		
			<rect x="25.6" y="33.8" transform="matrix(1 -5.610058e-03 5.610058e-03 1 -0.1945 0.1551)" class="st5" width="3.8" height="1.8"/>
		
			<rect x="30.5" y="18.2" transform="matrix(1 -5.610058e-03 5.610058e-03 1 -0.1065 0.1901)" class="st5" width="6.7" height="1.8"/>
		<rect x="20" y="18.2" transform="matrix(1 -5.610058e-03 5.610058e-03 1 -0.107 0.1217)" class="st5" width="3.4" height="1.8"/>
		
			<rect x="34.2" y="16.4" transform="matrix(5.610058e-03 1 -1 5.610058e-03 53.9985 -19.7135)" class="st5" width="5.3" height="1.8"/>
		<rect x="29" y="21" transform="matrix(5.610058e-03 1 -1 5.610058e-03 53.1536 -9.5781)" class="st5" width="4.9" height="1.8"/>
		
			<rect x="17.1" y="24.8" transform="matrix(5.610058e-03 1 -1 5.610058e-03 51.6748 -0.9265)" class="st5" width="18.4" height="1.5"/>
		
			<rect x="27.5" y="29.6" transform="matrix(5.610058e-03 1 -1 5.610058e-03 61.3427 -1.5471)" class="st5" width="7.9" height="0.9"/>
		
			<rect x="25.2" y="31.5" transform="matrix(5.610058e-03 1 -1 5.610058e-03 60.7443 2.7657)" class="st5" width="7.5" height="0.9"/>
		<path class="st5" d="M29.4,13.4l-8.5,0c-0.5,0-0.9,0.4-0.9,1l0,0.3l0,0.6l0,4.3l0.9,0l0-3.6c0-0.4,0.3-0.7,0.7-0.7l7.8,0
			L29.4,13.4z"/>
	</g>
	<path class="st16" d="M40.3,42.3l0-5.9l8.3,0l0-1.5l0,0l0-3.2l0,0l0-1.8l-7.9,0l0,1.8l6,0l0,2.9l-7.9,0l0,0l-0.5,0l0,7.8
		c-0.1,0.2-0.2,0.4-0.2,0.7c0,0.3,0.1,0.6,0.3,0.8c0.1,0.1,0.1,0.1,0.2,0.1c0.2,0.1,0.4,0.2,0.6,0.2c0.3,0,0.6-0.1,0.8-0.3
		c0.2-0.2,0.3-0.5,0.3-0.8C40.6,42.7,40.5,42.4,40.3,42.3z M39.7,43.2c-0.1,0.1-0.2,0.1-0.3,0.1c-0.2,0-0.4-0.2-0.4-0.4
		c0-0.1,0-0.2,0.1-0.3c0.1-0.1,0.2-0.1,0.3-0.1c0.1,0,0.2,0,0.3,0.1c0.1,0.1,0.1,0.2,0.1,0.3C39.9,43,39.8,43.1,39.7,43.2z"/>
	<path class="st16" d="M49.3,25.5l0-0.9l0,0l0-2.9l-1.8,0l0,0l-13.6,0.1l0,1.8l0,0l0,2.7c-0.1,0.1-0.2,0.1-0.3,0.2
		c-0.2,0.2-0.3,0.5-0.3,0.8c0,0.3,0.1,0.6,0.3,0.8c0.1,0.1,0.1,0.1,0.2,0.1c0.2,0.1,0.4,0.2,0.6,0.2c0.3,0,0.6-0.1,0.8-0.3
		c0.2-0.2,0.3-0.5,0.3-0.8c0-0.5-0.3-0.9-0.7-1l0-2.7l12.7-0.1l0,1l-9.7,0.1c-0.1-0.1-0.1-0.2-0.2-0.3c-0.2-0.2-0.5-0.3-0.8-0.3
		c-0.6,0-1.1,0.5-1.1,1.1c0,0.3,0.1,0.6,0.3,0.8c0.1,0.1,0.1,0.1,0.2,0.1c0.2,0.1,0.4,0.2,0.6,0.2c0.5,0,0.9-0.3,1-0.7L49.3,25.5z
		 M34.1,27.1c0.1-0.1,0.2-0.1,0.3-0.1c0.2,0,0.4,0.2,0.4,0.4c0,0.1,0,0.2-0.1,0.3c-0.1,0.1-0.2,0.1-0.3,0.1c-0.1,0-0.2,0-0.3-0.1
		C34,27.7,34,27.6,34,27.4C34,27.3,34,27.2,34.1,27.1z M36.8,25.6c-0.1,0-0.2,0-0.3-0.1c-0.1-0.1-0.1-0.2-0.1-0.3l0,0
		c0-0.2,0.2-0.4,0.4-0.4c0.1,0,0.2,0,0.2,0.1c0,0,0,0,0.1,0.1c0.1,0.1,0.1,0.2,0.1,0.3C37.3,25.4,37.1,25.6,36.8,25.6z"/>
	<path class="st16" d="M49.4,27.1c0-0.6-0.5-1.1-1.1-1.1c-0.3,0-0.6,0.1-0.8,0.3c-0.1,0.1-0.2,0.2-0.2,0.3l-9.5,0.1l0,0l-1.8,0
		L36,42.2l-1.1,0l-0.1-10.6l-0.5,0l1,0l0-1.9l-1.9,0l0,1.9l0.5,0L34,44l0.9,0l0,0l1.1,0l0,0l0,0l1.1,0l0,0l0.7,0l-0.1-16.3l9.5-0.1
		c0.1,0.2,0.2,0.4,0.4,0.5c0.2,0.1,0.4,0.2,0.6,0.2C48.9,28.3,49.4,27.8,49.4,27.1z M48.3,27.6c-0.2,0-0.4-0.2-0.4-0.4
		c0-0.1,0-0.2,0.1-0.3c0.1-0.1,0.2-0.1,0.3-0.1c0.2,0,0.4,0.2,0.4,0.4C48.7,27.4,48.5,27.6,48.3,27.6z"/>
	<path class="st16" d="M46.4,33c0-0.3-0.1-0.6-0.3-0.8c-0.2-0.2-0.5-0.3-0.8-0.3c-0.3,0-0.6,0.1-0.8,0.3c-0.1,0.1-0.2,0.2-0.2,0.3
		l-4.4,0l0-2.4c0.1-0.1,0.2-0.1,0.3-0.2c0.2-0.2,0.3-0.5,0.3-0.8c0-0.3-0.1-0.6-0.3-0.8c-0.2-0.2-0.5-0.3-0.8-0.3
		c-0.3,0-0.6,0.1-0.8,0.3c-0.2,0.2-0.3,0.5-0.3,0.8c0,0.3,0.1,0.6,0.3,0.8c0.1,0.1,0.1,0.1,0.2,0.1c0.1,0,0.1,0.1,0.2,0.1l0,2.4l0,0
		l0,0.9l5.3,0c0.1,0.1,0.1,0.2,0.2,0.3c0.1,0.1,0.1,0.1,0.2,0.1c0.2,0.1,0.4,0.2,0.6,0.2c0.3,0,0.6-0.1,0.8-0.3S46.4,33.3,46.4,33z
		 M39,29.5c-0.1-0.1-0.1-0.2-0.1-0.3l0,0c0-0.1,0-0.2,0.1-0.3c0.1-0.1,0.2-0.1,0.3-0.1c0.1,0,0.2,0,0.2,0.1c0,0,0,0,0.1,0.1
		c0.1,0.1,0.1,0.2,0.1,0.3c0,0.1,0,0.2-0.1,0.3c-0.1,0.1-0.2,0.1-0.3,0.1C39.2,29.6,39.1,29.6,39,29.5z M45.6,33.3
		c-0.1,0.1-0.2,0.1-0.3,0.1c-0.1,0-0.2,0-0.3-0.1c-0.1-0.1-0.1-0.2-0.1-0.3c0-0.1,0-0.2,0.1-0.3c0.1-0.1,0.2-0.1,0.3-0.1
		c0.1,0,0.2,0,0.2,0.1c0,0,0,0,0.1,0.1c0.1,0.1,0.1,0.2,0.1,0.3C45.7,33.1,45.7,33.2,45.6,33.3z"/>
	<path class="st17" d="M23.3,6.5c-1.7-1.3-3.3-1.9-3.6-2c-2.2-0.8-4.1-0.8-5.3-0.7c0,1.2,0,3.5,0,3.5l0,0l0,0
		c2.5,0.1,4.1,0.2,5.8,1.4c-0.1,0.2-0.1,0.4-0.1,0.7c0.1,0.5,0.5,0.9,1,0.9c0.7,0.1,1.4-0.5,1.3-1.3c-0.1-0.5-0.4-0.9-0.9-1
		c-0.2,0-0.3,0-0.5,0c-1.8-1.4-3.6-1.7-5.6-1.7l0-0.8c1,0,2.5,0.1,4.2,0.7c0.5,0.2,1.4,0.6,2.2,1.1c1.5,1,2.5,2.2,3.2,3.2l-4.5,0
		c-0.2-0.4-0.7-0.7-1.2-0.7c-0.5,0.1-0.9,0.5-1,1c-0.1,0.7,0.5,1.3,1.1,1.3c0.5,0,0.9-0.3,1-0.7c2.9,0,5,0,6,0c0.1,0,0.5,0,0.7-0.2
		c0.2-0.4-0.1-0.7-0.6-1.4C25.8,9,25.1,7.9,23.3,6.5z M21.1,8.8c0.3-0.1,0.6,0.2,0.5,0.5c0,0.2-0.2,0.3-0.4,0.4
		c-0.3,0.1-0.6-0.2-0.5-0.5C20.8,9,21,8.9,21.1,8.8z M19.5,11.6c-0.3,0.1-0.6-0.2-0.5-0.5c0-0.2,0.2-0.3,0.4-0.4
		c0.3-0.1,0.6,0.2,0.5,0.5C19.9,11.4,19.7,11.6,19.5,11.6z"/>
	<path class="st17" d="M18.3,9.2c0-0.7-0.5-1.2-1.2-1.2c-0.4,0-0.7,0.2-0.9,0.5C16.1,8.6,16,8.8,16,9.1c0,0.3,0.1,0.6,0.3,0.8
		l-0.1,0.3c-0.5-0.1-1.2-0.2-2.3,0l-0.9-2.4c0,0,0,0,0,0l0,0c-0.2-0.5-0.7-0.8-1.2-0.6c-5.1,1.9-7,6.6-6.6,10.6
		C5.5,19.8,6.5,22,8,23.6c1.5,1.6,3.4,2.5,5.4,2.8c0,0,0,0,0,0L13.4,27c-2.1-0.2-4.1-1.1-5.7-2.7C6,22.7,4.9,20.4,4.5,18
		c-0.4-2.4,0-4.8,1.2-6.8c0.6-1.1,1.5-2.1,2.5-2.9c0.9-0.7,2-1.3,3.2-1.9c0.4-0.2,0.7-0.7,0.6-1.2l0,0c-0.1-0.5-0.6-0.8-1.1-0.6
		C9.5,5.3,8.2,6.1,7.1,6.9c-1.2,1-2.2,2.1-3,3.4c-0.7,1.2-1.2,2.5-1.4,3.9c-0.2,1.3-0.2,2.7,0,4.1c0.4,2.8,1.8,5.4,3.7,7.3
		c1,1,2.2,1.8,3.5,2.3c1,0.5,2.2,0.7,3.3,0.9c0.5,0,0.9-0.3,1-0.7c0,0,0-0.1,0-0.1l0.2-2.6c0-0.6-0.5-0.8-0.8-0.8
		c-1.6,0-3.1-1-4.3-2.2c-1.3-1.3-2.1-3.1-2.3-4.8c-0.2-1.9,0.2-3.7,1.2-5.3c1-1.6,2.4-2.8,4.2-3.5c0.3,0.9,0.8,2.1,0.8,2.2
		c0.4-0.1,1.1-0.3,1.9-0.2c0.6,0,1.2,0.2,1.5,0.3c0.1,0,0.2,0,0.2-0.1c0.1-0.4,0.2-0.8,0.2-0.8c0,0,0,0,0.1,0c0.3,0,0.7-0.2,0.9-0.5
		C18.2,9.5,18.3,9.4,18.3,9.2z M17.5,9.4c-0.1,0.1-0.2,0.1-0.3,0.2c-0.2,0-0.3-0.1-0.4-0.2c0-0.1,0-0.1,0-0.2v0c0-0.1,0-0.2,0.1-0.3
		c0.1-0.1,0.2-0.2,0.3-0.2c0,0,0,0,0,0c0.2,0,0.4,0.2,0.4,0.4C17.6,9.2,17.6,9.3,17.5,9.4z"/>
	<path class="st17" d="M18.5,21.5c-1.6,1.1-3.2,1.6-4.8,1.5c-1.4-0.1-2.7-0.8-3.6-2c-1-1.2-1.4-2.9-1.2-4.5c0.1-1,0.6-2.4,2-3.5
		c0,0,0.1-0.1,0.1-0.1c0.2,0.1,0.4,0.2,0.6,0.2c0.6,0,1.1-0.5,1.1-1.2c0-0.7-0.6-1.2-1.3-1.1c-0.5,0.1-0.9,0.5-1,1
		c0,0.1,0,0.3,0,0.4c-1.4,1-2.3,2.5-2.5,4.2c-0.3,1.8,0.2,3.8,1.4,5.2c1,1.3,2.5,2.1,4.2,2.3c0.2,0,0.5,0,0.7,0
		c1.2,0,2.4-0.3,3.5-0.9c0.3-0.1,0.6,0.1,0.6,0.4v0l2.1,0c0.2,0.1,0.4,0.2,0.6,0.2c0,0,0,0,0,0c0.3,0,0.6-0.1,0.8-0.4
		c0.2-0.2,0.3-0.5,0.3-0.8c0-0.3-0.1-0.6-0.4-0.8c-0.2-0.2-0.5-0.3-0.8-0.3c-0.2,0-0.4,0.1-0.6,0.2 M11.6,11.5
		c0.3-0.1,0.6,0.2,0.5,0.5c0,0.2-0.2,0.3-0.4,0.4c-0.3,0.1-0.6-0.2-0.5-0.5C11.3,11.7,11.4,11.5,11.6,11.5z M21.5,22.7
		c-0.1,0.1-0.2,0.1-0.3,0.1c-0.2,0-0.4-0.1-0.4-0.3c0,0,0-0.1,0-0.1l0,0c0-0.1,0-0.2,0.1-0.3c0.1-0.1,0.2-0.2,0.3-0.2c0,0,0,0,0,0
		c0.1,0,0.2,0,0.3,0.1c0.1,0.1,0.1,0.2,0.1,0.3C21.7,22.5,21.6,22.6,21.5,22.7z"/>
	<path class="st17" d="M23.9,26.4L23.9,26.4l0-1.8l-1.7,0l-0.2,0l-2.8,0l0-0.4l-1.9,0l0,1.9l1.9,0l0-0.5l2.8,0
		c-1,0.8-2.5,1.6-4.2,1.9l0,0c-0.2-0.1-0.3-0.1-0.5-0.1c-0.6,0-1.1,0.5-1.1,1.1c0,0.6,0.5,1.1,1.1,1.1c0.3,0,0.6-0.1,0.8-0.4
		C20.7,29,22.8,27.4,23.9,26.4z M17.2,29c-0.2,0-0.4-0.2-0.4-0.4c0-0.2,0.2-0.4,0.4-0.4c0.2,0,0.4,0.2,0.4,0.4
		C17.7,28.8,17.5,29,17.2,29z"/>
</g>
<g id="Layer_2" class="st19">
</g>
</svg>
